<svg xmlns="http://www.w3.org/2000/svg" viewBox="0 0 64 64">
  <defs>
    <radialGradient id="helmGradS" cx="38%" cy="32%" r="62%">
      <stop offset="0%"   stop-color="#a8cde8"/>
      <stop offset="55%"  stop-color="#6499c0"/>
      <stop offset="100%" stop-color="#3a6080"/>
    </radialGradient>
    <radialGradient id="cheekGradS" cx="50%" cy="40%" r="60%">
      <stop offset="0%"   stop-color="#5c8fb8"/>
      <stop offset="100%" stop-color="#2e5570"/>
    </radialGradient>
    <linearGradient id="goldGradS" x1="0%" y1="0%" x2="0%" y2="100%">
      <stop offset="0%"   stop-color="#f5d47a"/>
      <stop offset="50%"  stop-color="#e8b84b"/>
      <stop offset="100%" stop-color="#b8851e"/>
    </linearGradient>
    <linearGradient id="rfGoldS" x1="0%" y1="0%" x2="100%" y2="100%">
      <stop offset="0%"   stop-color="#f8e090"/>
      <stop offset="100%" stop-color="#c09020"/>
    </linearGradient>
    <radialGradient id="visorGlowS" cx="30%" cy="35%" r="70%">
      <stop offset="0%"   stop-color="#4488bb" stop-opacity="0.55"/>
      <stop offset="100%" stop-color="#000e1e" stop-opacity="0"/>
    </radialGradient>
    <radialGradient id="domeGlossS" cx="38%" cy="28%" r="50%">
      <stop offset="0%"   stop-color="rgba(255,255,255,0.18)"/>
      <stop offset="100%" stop-color="rgba(255,255,255,0)"/>
    </radialGradient>
  </defs>

  <rect width="64" height="64" rx="14" fill="#050e1f"/>

  <rect x="46" y="5.5" width="10" height="5.5" rx="2.5" fill="url(#rfGoldS)"/>
  <rect x="47.5" y="7" width="7" height="2.5" rx="1" fill="rgba(0,0,0,0.25)"/>
  <rect x="47.5" y="10.5" width="4" height="8.5" rx="2" fill="#d4a030"/>
  <rect x="45.5" y="18.5" width="8" height="5.5" rx="2" fill="url(#rfGoldS)"/>
  <circle cx="49.5" cy="21.25" r="1.8" fill="#001428"/>
  <circle cx="49.5" cy="21.25" r="0.9" fill="#75aadb"/>
  <circle cx="50.1" cy="20.7" r="0.35" fill="rgba(255,255,255,0.7)"/>

  <path d="M 32 5.5 C 23.5 5.5, 16 10, 12.5 17 C 10 22, 9.5 28, 9.5 32 L 9.5 36 C 17 33, 26 31.5, 32 31.5 C 38 31.5, 47 33, 54.5 36 L 54.5 32 C 54.5 28, 54 22, 51.5 17 C 48 10, 40.5 5.5, 32 5.5 Z" fill="url(#helmGradS)"/>
  <path d="M 9.5 36 L 9.5 44 C 9.5 52.5, 18.5 60, 28 60 L 36 60 C 45.5 60, 54.5 52.5, 54.5 44 L 54.5 36 C 47 33, 38 31.5, 32 31.5 C 26 31.5, 17 33, 9.5 36 Z" fill="url(#cheekGradS)"/>
  <ellipse cx="25" cy="16" rx="10" ry="6.5" fill="url(#domeGlossS)" transform="rotate(-22,25,16)"/>

  <line x1="32" y1="5.5" x2="32" y2="20" stroke="rgba(0,15,35,0.30)" stroke-width="1" stroke-linecap="round"/>
  <path d="M 10 22 Q 32 18, 54 22" stroke="rgba(0,15,35,0.28)" stroke-width="1.2" fill="none" stroke-linecap="round"/>
  <path d="M 9.5 36 Q 32 32.5, 54.5 36" stroke="rgba(0,15,35,0.22)" stroke-width="1" fill="none"/>
  <path d="M 10.5 44 Q 14 52, 20 57" stroke="rgba(0,15,35,0.22)" stroke-width="1" fill="none" stroke-linecap="round"/>
  <path d="M 53.5 44 Q 50 52, 44 57" stroke="rgba(0,15,35,0.22)" stroke-width="1" fill="none" stroke-linecap="round"/>

  <path d="M 18 9 Q 32 5, 46 9" stroke="url(#goldGradS)" stroke-width="2" fill="none" stroke-linecap="round"/>
  <path d="M 10.5 42 C 10 50, 14 57, 22 60" stroke="url(#goldGradS)" stroke-width="1.8" fill="none" stroke-linecap="round"/>
  <path d="M 53.5 42 C 54 50, 50 57, 42 60" stroke="url(#goldGradS)" stroke-width="1.8" fill="none" stroke-linecap="round"/>
  <path d="M 22 59 Q 32 63.5, 42 59" stroke="url(#goldGradS)" stroke-width="2.2" fill="none" stroke-linecap="round"/>

  <path d="M 14 22.5 Q 14 19, 17.5 19 H 46.5 Q 50 19, 50 22.5 V 30 Q 50 33.5, 46.5 33.5 H 37.5 V 45 Q 37.5 49, 32 49 Q 26.5 49, 26.5 45 V 33.5 H 17.5 Q 14 33.5, 14 30 Z" fill="#a07820" opacity="0.65"/>
  <path d="M 15 23 Q 15 20, 18 20 H 46 Q 49 20, 49 23 V 29.5 Q 49 32.5, 46 32.5 H 37 V 44.5 Q 37 47.5, 32 47.5 Q 27 47.5, 27 44.5 V 32.5 H 18 Q 15 32.5, 15 29.5 Z" fill="#001428"/>
  <path d="M 15 23 Q 15 20, 18 20 H 46 Q 49 20, 49 23 V 29.5 Q 49 32.5, 46 32.5 H 37 V 44.5 Q 37 47.5, 32 47.5 Q 27 47.5, 27 44.5 V 32.5 H 18 Q 15 32.5, 15 29.5 Z" fill="url(#visorGlowS)"/>
  <path d="M 15 23 Q 15 20, 18 20 H 46 Q 49 20, 49 23 V 29.5 Q 49 32.5, 46 32.5 H 37 V 44.5 Q 37 47.5, 32 47.5 Q 27 47.5, 27 44.5 V 32.5 H 18 Q 15 32.5, 15 29.5 Z" fill="none" stroke="#75aadb" stroke-width="0.6" opacity="0.35"/>
  <path d="M 16.5 21.5 L 31 21.5 Q 31.5 23, 16.5 23 Z" fill="rgba(117,170,219,0.18)"/>
  <rect x="27.5" y="33.5" width="2" height="9" rx="1" fill="rgba(117,170,219,0.10)"/>

  <polygon fill="url(#goldGradS)" points="26,52.9 26.78,55.05 29.06,55.05 27.24,56.4 27.9,58.6 26,57.32 24.1,58.6 24.76,56.4 22.94,55.05 25.22,55.05"/>
  <polygon fill="url(#goldGradS)" points="32,52.9 32.78,55.05 35.06,55.05 33.24,56.4 33.9,58.6 32,57.32 30.1,58.6 30.76,56.4 28.94,55.05 31.22,55.05"/>
  <polygon fill="url(#goldGradS)" points="38,52.9 38.78,55.05 41.06,55.05 39.24,56.4 39.9,58.6 38,57.32 36.1,58.6 36.76,56.4 34.94,55.05 37.22,55.05"/>
</svg>
